<?xml version="1.0" encoding="utf-8"?>
<!-- Generator: Adobe Illustrator 17.1.0, SVG Export Plug-In . SVG Version: 6.00 Build 0)  -->
<!DOCTYPE svg PUBLIC "-//W3C//DTD SVG 1.1//EN" "http://www.w3.org/Graphics/SVG/1.1/DTD/svg11.dtd">
<svg version="1.1" id="Layer_1" xmlns="http://www.w3.org/2000/svg" xmlns:xlink="http://www.w3.org/1999/xlink" x="0px" y="0px"
	 viewBox="0 0 289.615 85.193" enable-background="new 0 0 289.615 85.193" xml:space="preserve">
<g>
	<path fill="#FFFFFF" d="M10.85,78.506H0V6.515h30.886v10.908H10.85v19.634h14.64v10.908H10.85V78.506z"/>
	<path fill="#FFFFFF" d="M43.213,61.972l-2.636,16.534H29.279L41.507,6.572h14.926l12.055,71.934H57.08l-2.539-16.534H43.213z
		 M48.912,23.049l-4.019,28.36h8.037L48.912,23.049z"/>
	<path fill="#FFFFFF" d="M93.175,79.424c-4.785,0-8.851-1.673-12.2-5.023c-3.35-3.348-5.023-7.396-5.023-12.142V22.991
		c0-4.784,1.683-8.85,5.052-12.199c3.367-3.349,7.425-5.024,12.171-5.024c4.784,0,8.841,1.685,12.17,5.052
		c3.33,3.369,4.995,7.426,4.995,12.171v8.21H99.088v-8.439c0-1.722-0.613-3.195-1.837-4.421c-1.226-1.224-2.698-1.837-4.421-1.837
		s-3.186,0.613-4.392,1.837c-1.206,1.226-1.809,2.698-1.809,4.421v39.383c0,1.722,0.603,3.186,1.809,4.392
		c1.205,1.205,2.669,1.808,4.392,1.808s3.195-0.603,4.421-1.808c1.224-1.206,1.837-2.67,1.837-4.392v-9.932h11.252v10.047
		c0,4.784-1.685,8.841-5.052,12.171C101.92,77.76,97.882,79.424,93.175,79.424z"/>
	<path fill="#FFFFFF" d="M119.238,78.506V6.515h30.886v10.908h-20.036v19.634h14.64v10.908h-14.64v19.634h20.036v10.908H119.238z"/>
	<path fill="#FFFFFF" d="M191.687,61.283c0,4.746-1.665,8.804-4.995,12.171c-3.33,3.368-7.348,5.052-12.056,5.052h-17.051V6.515
		h17.051c4.745,0,8.773,1.685,12.085,5.052c3.309,3.368,4.966,7.406,4.966,12.114V61.283z M168.436,67.771h6.545
		c1.723,0,3.177-0.622,4.363-1.866c1.186-1.243,1.78-2.708,1.78-4.392V23.852c0-1.722-0.603-3.195-1.809-4.421
		c-1.205-1.224-2.65-1.837-4.334-1.837h-6.545V67.771z"/>
</g>
<g>
	<ellipse fill="#FFDD00" stroke="#000000" stroke-miterlimit="10" cx="246.392" cy="42.429" rx="21.627" ry="22.116"/>
	<polygon fill="#FF8300" points="254.147,27.043 238.56,26.999 230.805,13.477 238.637,0 254.225,0.045 261.98,13.566 	"/>
	<polygon fill="#FF8300" points="262.303,35.657 250.391,25.603 253.142,10.26 267.804,4.971 279.716,15.025 276.966,30.368 	"/>
	<polygon fill="#FF8300" points="263.013,47.497 260.351,32.139 272.32,22.154 286.953,27.527 289.615,42.885 277.646,52.871 	"/>
	<polygon fill="#FF8300" points="255.947,57.025 263.78,43.548 279.367,43.592 287.122,57.114 279.29,70.591 263.702,70.546 	"/>
	<polygon fill="#FF8300" points="244.41,59.781 259.073,54.491 270.985,64.545 268.234,79.888 253.571,85.177 241.659,75.124 	"/>
	<polygon fill="#FF8300" points="233.8,54.476 248.432,59.849 251.095,75.208 239.126,85.193 224.493,79.82 221.831,64.461 	"/>
	<polygon fill="#FF8300" points="229.083,43.592 236.838,57.114 229.005,70.591 213.418,70.546 205.662,57.025 213.495,43.548 	"/>
	<polygon fill="#FF8300" points="232.465,32.223 229.714,47.566 215.051,52.855 203.139,42.801 205.89,27.458 220.552,22.169 	"/>
	<polygon fill="#FF8300" points="242.363,25.687 230.394,35.672 215.762,30.299 213.099,14.94 225.068,4.955 239.701,10.329 	"/>
</g>
</svg>
