<?xml version="1.0" encoding="utf-8"?>
<!-- Generator: Adobe Illustrator 17.1.0, SVG Export Plug-In . SVG Version: 6.00 Build 0)  -->
<!DOCTYPE svg PUBLIC "-//W3C//DTD SVG 1.1//EN" "http://www.w3.org/Graphics/SVG/1.1/DTD/svg11.dtd">
<svg version="1.1" id="Layer_1" xmlns="http://www.w3.org/2000/svg" xmlns:xlink="http://www.w3.org/1999/xlink" x="0px" y="0px"
	 viewBox="0 0 71.525 71.525" enable-background="new 0 0 71.525 71.525" xml:space="preserve">
<path fill="#3EBBE6" d="M67.179,0H4.347C1.946,0,0,1.946,0,4.346v62.833c0,2.4,1.946,4.346,4.347,4.346h37.411V46.324h-9.653V36.197
	h9.653c0,0-2.69-21.521,9.969-21.521h11.552l0.111,9.336l-7.074,0.158c0,0-3.639-0.316-3.798,5.539l-0.158,6.488h11.03
	l-1.852,10.602h-9.336l0.144,24.726h14.832c2.4,0,4.346-1.946,4.346-4.346V4.346C71.525,1.946,69.579,0,67.179,0z"/>
</svg>
