<?xml version="1.0" encoding="utf-8"?>
<!-- Generator: Adobe Illustrator 17.1.0, SVG Export Plug-In . SVG Version: 6.00 Build 0)  -->
<!DOCTYPE svg PUBLIC "-//W3C//DTD SVG 1.1//EN" "http://www.w3.org/Graphics/SVG/1.1/DTD/svg11.dtd">
<svg version="1.1" id="Layer_1" xmlns="http://www.w3.org/2000/svg" xmlns:xlink="http://www.w3.org/1999/xlink" x="0px" y="0px"
	 viewBox="0 0 71.526 73.5" enable-background="new 0 0 71.526 73.5" xml:space="preserve">
<path fill="#F1B426" d="M64.549,1H18.054v23.325h53.472V8.072C71.526,4.166,68.402,1,64.549,1"/>
<path fill="#3EBBE6" d="M14.733,24.325h-3.321H8.091H4.769H0v42.103C0,70.334,3.124,73.5,6.977,73.5h57.572
	c3.853,0,6.976-3.166,6.976-7.072V24.325H18.054H14.733z"/>
<path fill="#E6D7C7" d="M55.631,37.25c0,11.122-8.895,20.139-19.868,20.139c-10.973,0-19.868-9.017-19.868-20.139
	s8.895-20.139,19.868-20.139C46.736,17.111,55.631,26.128,55.631,37.25"/>
<path fill="#3E3E3E" d="M50.924,37.25c0,8.487-6.788,15.368-15.161,15.368c-8.374,0-15.162-6.881-15.162-15.368
	s6.788-15.368,15.162-15.368C44.136,21.882,50.924,28.763,50.924,37.25"/>
<path fill="#3A3A3A" d="M62.672,19.876h-6.441c-2.152,0-3.897-1.768-3.897-3.949v-6.53c0-2.181,1.745-3.949,3.897-3.949h6.441
	c2.152,0,3.896,1.768,3.896,3.949v6.53C66.568,18.108,64.824,19.876,62.672,19.876"/>
<path fill="#252525" d="M63.84,12.662c0,2.457-1.965,4.449-4.389,4.449c-2.424,0-4.388-1.992-4.388-4.449
	c0-2.457,1.964-4.449,4.388-4.449C61.875,8.213,63.84,10.205,63.84,12.662"/>
<path fill="#F1B426" d="M4.769,1.367C4.164,1.572,3.594,1.853,3.076,2.208C1.22,3.478,0,5.63,0,8.071v16.254h4.769V1.367z"/>
<path fill="#EE3870" d="M6.977,1C6.495,1,6.025,1.049,5.571,1.144c-0.227,0.047-0.45,0.105-0.669,0.174
	C4.857,1.332,4.814,1.352,4.769,1.367v22.958h3.322V1H6.977z"/>
<rect x="-208.475" fill="none" width="280" height="73.5"/>
</svg>
