<?xml version="1.0" encoding="utf-8"?>
<!-- Generator: Adobe Illustrator 17.1.0, SVG Export Plug-In . SVG Version: 6.00 Build 0)  -->
<!DOCTYPE svg PUBLIC "-//W3C//DTD SVG 1.1//EN" "http://www.w3.org/Graphics/SVG/1.1/DTD/svg11.dtd">
<svg version="1.1" id="Layer_1" xmlns="http://www.w3.org/2000/svg" xmlns:xlink="http://www.w3.org/1999/xlink" x="0px" y="0px"
	 viewBox="0 0 86.477 85.194" enable-background="new 0 0 86.477 85.194" xml:space="preserve">
<g>
	<defs>
		<rect id="SVGID_1_" x="0" y="0" width="86.477" height="85.193"/>
	</defs>
	<clipPath id="SVGID_2_">
		<use xlink:href="#SVGID_1_"  overflow="visible"/>
	</clipPath>
	<path clip-path="url(#SVGID_2_)" fill="#FFDD00" d="M64.88,42.43c0,12.214-9.683,22.116-21.627,22.116S21.626,54.644,21.626,42.43
		s9.683-22.116,21.627-22.116S64.88,30.216,64.88,42.43"/>
	
		<ellipse clip-path="url(#SVGID_2_)" fill="none" stroke="#000000" stroke-miterlimit="10" cx="43.253" cy="42.43" rx="21.627" ry="22.116"/>
</g>
<polygon fill="#FF8300" points="35.499,0 27.666,13.477 35.422,26.999 51.009,27.043 58.841,13.567 51.086,0.045 "/>
<polygon fill="#FF8300" points="59.164,35.657 47.252,25.603 50.003,10.26 64.666,4.971 76.578,15.025 73.827,30.368 "/>
<polygon fill="#FF8300" points="57.212,32.139 59.874,47.498 74.507,52.871 86.476,42.886 83.814,27.527 69.181,22.154 "/>
<polygon fill="#FF8300" points="52.808,57.025 60.641,43.548 76.228,43.593 83.983,57.115 76.151,70.591 60.563,70.547 "/>
<polygon fill="#FF8300" points="41.271,59.781 38.52,75.124 50.432,85.178 65.095,79.889 67.845,64.546 55.934,54.492 "/>
<polygon fill="#FF8300" points="18.692,64.462 21.354,79.821 35.986,85.194 47.956,75.208 45.293,59.85 30.661,54.477 "/>
<polygon fill="#FF8300" points="25.944,43.593 33.699,57.115 25.866,70.592 10.279,70.547 2.524,57.025 10.356,43.548 "/>
<polygon fill="#FF8300" points="2.751,27.458 0,42.801 11.912,52.855 26.575,47.566 29.325,32.223 17.414,22.17 "/>
<polygon fill="#FF8300" points="39.225,25.687 27.255,35.672 12.623,30.299 9.96,14.94 21.93,4.955 36.562,10.328 "/>
</svg>
