<?xml version="1.0" encoding="utf-8"?>
<!-- Generator: Adobe Illustrator 17.1.0, SVG Export Plug-In . SVG Version: 6.00 Build 0)  -->
<!DOCTYPE svg PUBLIC "-//W3C//DTD SVG 1.1//EN" "http://www.w3.org/Graphics/SVG/1.1/DTD/svg11.dtd">
<svg version="1.1" id="Layer_1" xmlns="http://www.w3.org/2000/svg" xmlns:xlink="http://www.w3.org/1999/xlink" x="0px" y="0px"
	 viewBox="0 0 71.525 73.5" enable-background="new 0 0 71.525 73.5" xml:space="preserve">
<path fill="#F1B426" d="M66.367,0H5.158C2.309,0,0,2.357,0,5.264v62.471C0,70.643,2.309,73,5.158,73h61.209
	c2.849,0,5.158-2.357,5.158-5.265V5.264C71.525,2.357,69.216,0,66.367,0z M61.167,36.228c-4.216,15.505-18.536,19.734-18.536,19.734
	C15.373,65.903,2.435,45.057,2.435,45.057c13.956,11.128,24.496-0.594,24.496-0.594s-2.835,0.816-4.361-1.78
	c-1.527-2.597,2.326-4.229,2.326-4.229c-6.397,0.89-8.287-4.155-8.287-4.155c1.817-1.928,4.507-1.78,4.507-1.78
	c-6.833-1.335-7.487-6.751-7.487-6.751c1.526-0.519,3.925-0.742,3.925-0.742c-5.96-3.042-5.452-8.383-5.452-8.383
	c17.518,5.564,22.243,11.944,22.243,11.944c2.544-11.573,10.467-16.692,10.467-16.692c0,0.816-0.582,1.632-0.582,1.632
	c2.472-1.929,4.798-2.003,4.798-2.003c-0.291,0.964-1.89,2.226-1.89,2.226c1.236-0.742,4.071-1.41,4.798-1.039
	c0.726,0.371-0.073,1.039-0.8,1.632c-0.727,0.594-4.289,1.558-4.289,1.558c13.738,1.039,14.175,12.834,14.175,12.834
	c3.707,1.262,7.705-0.816,7.705-0.816c-1.164,4.377-7.124,4.452-7.124,4.452c5.452,1.706,7.487,0.89,7.487,0.89
	C66.4,36.97,61.167,36.228,61.167,36.228z"/>
<rect x="-104.237" y="0" fill="none" width="280" height="73.5"/>
</svg>
